<svg xmlns="http://www.w3.org/2000/svg" width="1200" height="675" viewBox="0 0 1200 675" fill="none"><rect width="1200" height="675" fill="#E9EDE4"/><circle cx="1010" cy="94" r="190" fill="#D7E2D2"/><circle cx="129" cy="604" r="214" fill="#F2E9D8"/><rect x="228" y="130" width="744" height="416" rx="22" fill="#FCFBF7"/><rect x="274" y="181" width="232" height="20" rx="10" fill="#A5B69E"/><rect x="274" y="222" width="525" height="12" rx="6" fill="#E0E4DA"/><rect x="274" y="250" width="447" height="12" rx="6" fill="#E0E4DA"/><rect x="274" y="311" width="186" height="160" rx="14" fill="#E7EDE2"/><path d="M302 427l39-43 31 24 50-64" stroke="#56765D" stroke-width="8" stroke-linecap="round" stroke-linejoin="round"/><circle cx="422" cy="344" r="7" fill="#56765D"/><rect x="491" y="311" width="420" height="20" rx="10" fill="#CCD6C8"/><rect x="491" y="353" width="347" height="12" rx="6" fill="#E0E4DA"/><rect x="491" y="381" width="388" height="12" rx="6" fill="#E0E4DA"/><rect x="491" y="423" width="156" height="48" rx="24" fill="#56765D"/><path d="M541 447h66" stroke="white" stroke-width="5" stroke-linecap="round"/><path d="M929 530h104" stroke="#8A9A84" stroke-width="8" stroke-linecap="round"/><path d="M984 530v-93" stroke="#8A9A84" stroke-width="8" stroke-linecap="round"/><path d="M984 477c-31-4-47-21-48-48 29 1 45 17 48 48z" fill="#8A9A84"/><path d="M984 494c2-30 18-46 47-48-1 29-17 45-47 48z" fill="#6E8D70"/></svg>
